<?xml version="1.0" standalone="no"?>
<!DOCTYPE svg PUBLIC "-//W3C//DTD SVG 20010904//EN"
 "http://www.w3.org/TR/2001/REC-SVG-20010904/DTD/svg10.dtd">
<svg version="1.0" xmlns="http://www.w3.org/2000/svg"
 width="500.000000pt" height="500.000000pt" viewBox="0 0 500.000000 500.000000"
 preserveAspectRatio="xMidYMid meet">

<g transform="translate(0.000000,500.000000) scale(0.100000,-0.100000)"
fill="#000000" stroke="none">
<path d="M2406 4281 c-4 -5 -13 -29 -21 -53 -12 -34 -12 -39 -1 -25 16 21 56
23 56 2 0 -8 4 -15 10 -15 5 0 3 19 -7 43 -19 50 -29 62 -37 48z m24 -43 c0
-5 -7 -8 -15 -8 -17 0 -18 2 -9 25 5 13 8 14 15 3 5 -7 9 -16 9 -20z"/>
<path d="M2221 4238 c0 -26 4 -50 10 -53 6 -4 10 -1 8 6 -4 30 2 39 25 39 19
0 26 -6 29 -27 3 -21 4 -18 5 12 1 22 -3 47 -8 55 -8 12 -10 11 -10 -7 0 -18
-6 -23 -24 -23 -18 0 -26 7 -29 23 -2 12 -5 1 -6 -25z"/>
<path d="M2528 4255 c-17 -38 3 -75 39 -74 l28 1 -25 7 c-20 6 -25 13 -25 41
0 31 4 36 30 41 l30 7 -33 1 c-26 1 -35 -4 -44 -24z"/>
<path d="M2123 4240 c-7 -24 -11 -25 -37 -2 -21 17 -21 17 -2 -5 14 -17 17
-31 12 -55 -5 -28 -4 -30 6 -13 16 30 16 30 38 10 11 -10 20 -14 20 -8 0 5 -9
18 -19 27 -16 14 -18 23 -11 42 5 13 7 24 4 24 -3 0 -8 -9 -11 -20z"/>
<path d="M2686 4254 c8 -4 9 -17 2 -46 -12 -56 -2 -61 13 -5 8 35 15 44 27 40
10 -4 13 -2 8 5 -4 7 -19 12 -34 11 -15 0 -22 -3 -16 -5z"/>
<path d="M2805 4193 c-4 -21 -11 -44 -17 -50 -8 -10 -6 -13 4 -13 10 0 18 13
21 33 3 17 8 40 12 50 4 9 3 17 -3 17 -5 0 -13 -17 -17 -37z"/>
<path d="M1992 4193 c-2 -39 -7 -40 -41 -11 -24 21 -24 21 2 -8 29 -33 34 -50
15 -57 -10 -4 -10 -6 -1 -6 20 -1 34 37 30 77 -4 36 -4 36 -5 5z"/>
<path d="M1818 4158 c-33 -11 -34 -30 -8 -78 23 -42 27 -22 4 22 -13 25 -14
32 -2 39 24 15 35 10 53 -27 9 -20 19 -33 22 -31 4 5 -34 88 -40 86 -1 0 -14
-5 -29 -11z"/>
<path d="M2978 4100 c-36 -35 -51 -59 -27 -45 18 12 68 -15 62 -33 -4 -10 -2
-13 6 -8 7 4 10 13 8 19 -2 7 5 29 15 51 16 31 17 40 6 47 -20 13 -30 9 -70
-31z m62 20 c0 -6 -7 -24 -15 -41 -14 -25 -18 -28 -36 -18 -21 11 -21 11 7 40
29 30 44 37 44 19z"/>
<path d="M3116 4043 c-14 -21 -26 -42 -26 -48 0 -5 5 -2 11 7 7 13 17 16 39
11 33 -6 51 17 33 45 -17 28 -31 24 -57 -15z m50 6 c10 -17 -13 -36 -27 -22
-12 12 -4 33 11 33 5 0 12 -5 16 -11z"/>
<path d="M1634 4007 c15 -19 26 -39 26 -45 0 -15 17 -16 25 -2 3 6 3 10 -2 10
-4 0 -19 16 -32 35 -13 19 -28 35 -33 35 -5 0 2 -15 16 -33z"/>
<path d="M3245 3988 c-2 -7 -5 -24 -7 -38 -2 -18 -9 -25 -25 -24 -12 0 -20 -3
-17 -8 3 -4 12 -8 20 -8 20 0 94 33 94 43 0 4 -14 0 -31 -9 l-32 -16 6 36 c6
35 1 49 -8 24z"/>
<path d="M1522 3963 c-38 -15 -34 -71 8 -93 51 -27 85 51 38 84 -24 17 -26 17
-46 9z m42 -22 c10 -11 16 -28 14 -38 -5 -25 -47 -23 -65 3 -12 19 -12 24 2
38 21 21 28 20 49 -3z"/>
<path d="M3373 3886 c9 -7 17 -18 17 -25 0 -15 -23 -14 -38 1 -7 7 -12 8 -12
2 0 -6 5 -15 11 -21 6 -6 8 -16 5 -22 -11 -17 -34 -13 -45 7 -6 9 -11 12 -11
7 -1 -34 59 -47 67 -15 3 11 12 20 19 20 8 0 14 8 14 18 0 20 -18 42 -34 42
-6 0 -3 -7 7 -14z"/>
<path d="M1391 3839 c-19 -20 -19 -21 18 -54 33 -31 37 -32 54 -18 23 22 22
54 -3 60 -11 3 -20 9 -20 13 0 18 -31 18 -49 -1z m39 -13 c0 -8 -5 -18 -11
-22 -14 -8 -33 11 -25 25 10 16 36 13 36 -3z m37 -22 c9 -23 -13 -40 -32 -24
-12 10 -13 16 -4 26 15 18 28 18 36 -2z"/>
<path d="M3444 3775 c-11 -12 -29 -27 -40 -33 -12 -7 -15 -14 -9 -19 6 -5 26
7 48 28 21 20 35 39 30 41 -4 2 -17 -5 -29 -17z"/>
<path d="M1302 3730 c-26 -34 -29 -48 -7 -30 13 11 21 9 46 -9 17 -13 33 -21
36 -18 2 3 -9 16 -26 28 -22 16 -29 28 -25 41 8 26 1 22 -24 -12z"/>
<path d="M1891 3670 c-74 -5 -74 -5 -87 -40 -20 -56 -18 -70 13 -70 24 0 25
-1 11 -17 -9 -10 -19 -29 -23 -43 -4 -14 -12 -31 -18 -38 -18 -23 1 -24 50 -2
37 16 44 17 32 5 -21 -21 -14 -104 10 -122 23 -16 9 -25 -42 -25 -62 -1 -71 7
-41 39 35 38 28 58 -21 58 -34 0 -40 -3 -43 -23 -2 -13 4 -32 13 -42 9 -10 17
-27 18 -39 1 -11 8 -21 17 -22 10 0 11 -2 3 -6 -25 -10 -12 -19 26 -18 21 0
37 3 34 8 -2 4 8 12 22 17 38 15 54 12 25 -5 -24 -13 -23 -13 18 -8 l43 6 -17
-39 c-26 -60 -27 -78 -7 -100 18 -21 43 -22 43 -2 0 15 50 57 75 64 22 6 93
107 121 172 10 23 21 42 26 42 4 0 8 9 8 20 0 11 5 20 10 20 21 0 9 60 -22
106 -26 38 -41 50 -71 57 -30 7 -42 6 -55 -7 -25 -22 -59 -10 -65 24 -7 34
-14 36 -106 30z"/>
<path d="M2350 3390 c0 -6 7 -10 15 -10 8 0 15 2 15 4 0 2 -7 6 -15 10 -8 3
-15 1 -15 -4z"/>
<path d="M2363 3336 c0 -8 8 -12 21 -9 20 4 20 4 4 -10 -10 -8 -18 -19 -18
-24 0 -6 -14 -24 -31 -42 -20 -21 -28 -38 -24 -50 6 -21 -12 -39 -52 -50 -15
-4 -26 -11 -25 -16 2 -4 -11 -17 -29 -28 -19 -12 -27 -23 -19 -25 8 -3 2 -13
-16 -28 -16 -13 -23 -23 -16 -24 9 0 9 -6 -3 -23 -20 -31 -10 -83 24 -121 85
-96 182 -186 200 -186 20 0 21 5 19 98 -1 54 2 105 7 113 5 8 8 24 7 35 -2 16
10 29 48 54 40 26 57 45 74 84 26 59 46 78 84 82 15 1 28 3 30 4 1 1 5 3 10 5
4 1 20 5 35 10 17 4 38 3 53 -3 26 -13 54 -6 54 12 0 6 9 18 20 26 11 8 20 17
20 21 0 15 -95 29 -194 29 -96 0 -108 2 -142 25 -22 15 -45 23 -55 20 -12 -4
-23 1 -31 14 -14 23 -55 29 -55 7z"/>
<path d="M2104 3219 c-7 -8 -15 -29 -19 -48 l-7 -34 31 22 c35 25 49 44 27 35
-10 -4 -16 2 -18 17 -2 18 -5 20 -14 8z"/>
<path d="M2792 3153 c-7 -18 -19 -23 -54 -26 -9 -1 -14 -5 -12 -9 3 -4 1 -8
-4 -8 -6 0 -19 -19 -31 -42 -12 -24 -21 -36 -21 -27 0 15 -30 49 -43 49 -4 0
-7 -8 -8 -17 0 -10 -3 -13 -5 -6 -6 14 -44 -21 -87 -79 -16 -21 -34 -38 -42
-38 -7 0 -12 -7 -11 -16 4 -23 63 -84 82 -84 10 0 32 16 50 36 30 32 37 35 80
32 53 -3 75 -24 99 -94 13 -39 14 -39 29 10 8 25 54 50 69 37 8 -6 16 -8 20
-5 3 3 19 -12 35 -35 l29 -40 14 74 c12 70 29 95 42 63 5 -12 12 55 8 76 -1 5
6 5 16 1 10 -4 27 -8 38 -9 11 -1 25 -5 31 -9 7 -4 17 0 24 9 37 44 -201 189
-282 172 -13 -3 -32 -9 -42 -13 -14 -6 -17 -5 -12 3 4 7 5 12 1 12 -3 0 -9 -8
-13 -17z"/>
<path d="M1980 3055 c-13 -14 -19 -25 -14 -25 8 1 50 50 41 50 -2 0 -14 -11
-27 -25z"/>
<path d="M3247 2839 c7 -7 15 -10 18 -7 3 3 -2 9 -12 12 -14 6 -15 5 -6 -5z"/>
<path d="M2255 2770 c3 -5 11 -10 16 -10 6 0 7 5 4 10 -3 6 -11 10 -16 10 -6
0 -7 -4 -4 -10z"/>
<path d="M2286 2713 c4 -16 11 -37 17 -47 8 -16 6 -18 -7 -13 -17 7 -22 -8 -6
-18 6 -4 8 -27 6 -55 -3 -27 -1 -52 4 -55 6 -4 10 3 10 14 0 12 5 21 11 21 5
0 7 5 3 12 -4 6 -6 33 -5 59 1 26 -3 50 -9 54 -5 3 -10 17 -10 31 0 13 -5 24
-10 24 -6 0 -8 -11 -4 -27z"/>
<path d="M2972 2675 c0 -16 2 -22 5 -12 2 9 2 23 0 30 -3 6 -5 -1 -5 -18z"/>
<path d="M3311 2605 l2 -60 7 50 c4 28 3 54 -1 60 -5 5 -8 -16 -8 -50z"/>
<path d="M2560 2641 c0 -6 4 -13 10 -16 6 -3 7 1 4 9 -7 18 -14 21 -14 7z"/>
<path d="M3080 2624 c0 -14 -4 -23 -10 -19 -5 3 -10 1 -10 -5 0 -6 -4 -9 -9
-6 -5 3 -12 -6 -15 -19 -4 -14 -11 -23 -16 -20 -15 9 -12 -11 4 -24 11 -9 15
-8 20 5 3 9 4 19 1 23 -2 5 7 14 20 21 18 9 25 22 25 42 0 15 -2 28 -5 28 -3
0 -5 -12 -5 -26z"/>
<path d="M2990 2590 c0 -5 5 -10 11 -10 5 0 7 5 4 10 -3 6 -8 10 -11 10 -2 0
-4 -4 -4 -10z"/>
<path d="M3117 2543 c18 -27 28 -24 19 5 -4 10 -13 19 -20 19 -12 0 -12 -4 1
-24z"/>
<path d="M2970 2539 c0 -9 -3 -31 -6 -48 -4 -20 -3 -31 5 -31 6 0 11 7 11 15
0 9 6 18 13 21 8 3 14 11 14 19 0 8 -4 12 -8 9 -4 -2 -12 4 -18 13 -9 16 -10
16 -11 2z"/>
<path d="M2260 2532 c0 -5 7 -16 16 -23 14 -12 16 -11 13 5 -4 20 -29 35 -29
18z"/>
<path d="M3220 2457 c8 -7 27 -19 43 -25 23 -10 27 -9 27 4 0 10 -6 14 -15 11
-8 -4 -17 -2 -20 4 -4 5 -11 7 -16 4 -5 -4 -9 -1 -9 4 0 6 -5 11 -12 11 -8 0
-8 -4 2 -13z"/>
<path d="M2152 2260 c-44 -61 -52 -65 -111 -54 -22 5 -31 12 -31 26 0 21 36
57 58 58 6 0 12 4 12 9 0 10 -35 7 -210 -20 -217 -34 -350 -87 -350 -139 0
-73 260 -144 626 -171 209 -15 706 -6 874 16 293 38 460 94 460 156 0 43 -130
101 -290 130 -76 13 -284 38 -288 34 -1 -1 -5 -45 -8 -96 -4 -74 -11 -105 -32
-146 -25 -51 -42 -63 -90 -63 -25 0 -72 27 -72 41 0 18 41 49 64 49 19 0 25 7
34 39 5 22 7 51 5 64 -4 21 -12 26 -53 31 -37 5 -49 11 -53 27 -9 34 3 49 39
49 19 0 34 5 34 10 0 13 -412 14 -425 1 -19 -17 -84 -20 -99 -5 -28 27 -51 16
-94 -46z"/>
<path d="M1933 1898 c-6 -7 -15 -26 -20 -43 -7 -23 -16 -31 -40 -33 -26 -3
-32 1 -37 22 -8 34 -53 47 -73 21 -55 -77 72 -169 166 -121 76 40 99 166 30
166 -9 0 -21 -6 -26 -12z"/>
<path d="M3548 1753 c-14 -32 -23 -332 -13 -402 11 -71 94 -131 122 -88 4 6
10 102 13 212 l5 200 34 -2 c18 0 38 -6 43 -11 5 -5 14 -88 20 -183 5 -96 15
-184 21 -196 12 -26 35 -29 62 -9 18 13 18 21 6 212 -10 157 -16 204 -30 223
-21 31 -99 56 -196 65 l-75 7 -12 -28z"/>
<path d="M4317 1767 c-10 -6 -20 -26 -22 -42 -8 -44 -37 -135 -45 -140 -4 -2
-18 28 -31 67 -26 77 -48 100 -76 82 -10 -6 -19 -22 -21 -36 -2 -20 38 -147
72 -228 4 -10 -9 -40 -34 -79 -36 -56 -44 -62 -66 -57 -13 4 -33 2 -44 -4 -51
-27 2 -90 76 -90 33 0 52 8 86 33 81 61 115 132 169 349 19 74 19 83 5 113 -9
18 -23 36 -32 39 -20 8 -17 8 -37 -7z"/>
<path d="M1427 1756 c-10 -8 -21 -36 -26 -68 -19 -111 -52 -231 -88 -313 -31
-74 -35 -88 -25 -111 18 -37 62 -30 81 14 12 27 20 32 48 32 32 0 33 -1 33
-45 0 -42 2 -45 42 -65 45 -21 73 -19 87 8 5 10 5 96 1 197 -6 138 -13 196
-29 246 -34 107 -75 142 -124 105z m33 -292 c0 -58 -2 -64 -21 -64 -14 0 -19
5 -16 13 3 8 8 39 12 70 10 75 25 63 25 -19z"/>
<path d="M2708 1759 c-64 -10 -65 -14 -71 -177 -5 -175 -17 -222 -53 -222 -39
0 -64 -18 -64 -45 0 -30 26 -45 78 -45 80 0 120 89 129 288 3 67 9 122 13 122
18 0 24 -46 24 -217 1 -119 5 -186 12 -193 6 -6 27 -10 45 -8 28 2 37 10 54
43 25 52 32 204 15 329 -18 135 -18 134 -87 133 -32 -1 -75 -4 -95 -8z"/>
<path d="M3207 1756 c-12 -9 -26 -52 -42 -132 -27 -128 -51 -211 -69 -233 -14
-18 -36 -81 -36 -107 0 -27 18 -44 48 -44 17 0 27 9 38 35 12 28 20 35 43 35
26 0 29 -4 35 -45 7 -40 12 -48 48 -66 34 -17 45 -19 66 -10 l25 12 -6 182
c-5 192 -18 266 -60 342 -24 44 -58 56 -90 31z m24 -313 c-2 -30 -8 -43 -18
-43 -11 0 -14 7 -10 23 3 12 9 47 14 77 7 52 8 53 13 20 3 -19 3 -54 1 -77z"/>
<path d="M893 1749 c-38 -11 -40 -17 -47 -144 -8 -143 -46 -235 -96 -235 -32
0 -40 -23 -40 -107 0 -69 3 -86 20 -103 20 -20 47 -18 62 4 4 6 8 37 8 69 l0
57 39 0 c21 0 66 -3 100 -6 l61 -7 0 -51 c0 -59 12 -76 53 -76 61 0 67 11 67
120 0 76 -4 102 -16 114 -8 9 -20 16 -25 16 -6 0 -7 62 -3 163 6 147 5 163
-11 177 -21 17 -127 23 -172 9z m73 -191 c-3 -50 -6 -113 -6 -140 l0 -48 -44
0 -44 0 24 60 c15 36 27 91 31 140 5 71 8 80 26 80 19 0 20 -4 13 -92z"/>
<path d="M1957 1687 c-35 -30 -39 -41 -69 -160 -17 -70 -33 -125 -35 -123 -3
2 -7 68 -11 146 -6 121 -10 145 -24 154 -13 8 -23 8 -35 0 -16 -10 -18 -30
-18 -180 1 -182 12 -254 47 -291 44 -47 60 -33 110 97 l29 75 -5 -59 c-6 -68
5 -96 37 -96 36 0 43 11 55 87 16 97 16 355 0 371 -19 19 -40 14 -81 -21z"/>
<path d="M1750 1140 c0 -20 7 -20 804 -20 799 0 804 0 799 20 -5 20 -14 20
-804 20 -792 0 -799 0 -799 -20z"/>
<path d="M1960 995 c0 -37 4 -65 10 -65 6 0 10 13 10 29 0 26 4 30 32 33 61 6
44 68 -18 68 l-34 0 0 -65z m68 28 c3 -19 -1 -23 -22 -23 -21 0 -26 5 -26 26
0 21 4 25 23 22 14 -2 23 -11 25 -25z"/>
<path d="M2120 995 l0 -65 38 1 c30 2 32 3 10 6 -22 3 -28 10 -28 28 0 18 6
25 28 28 l27 4 -27 2 c-23 1 -28 6 -28 25 0 19 6 26 28 29 22 3 20 4 -10 6
l-38 1 0 -65z"/>
<path d="M2275 1051 c16 -6 21 -20 26 -67 l6 -59 1 62 c2 55 4 62 25 66 12 2
0 5 -28 5 -34 0 -43 -2 -30 -7z"/>
<path d="M2420 1041 c-11 -21 9 -51 34 -51 8 0 19 -6 25 -14 17 -20 -13 -43
-34 -26 -17 14 -31 8 -20 -9 7 -13 45 -14 63 -2 25 16 10 55 -25 65 -34 9 -44
32 -18 42 8 4 22 1 30 -6 17 -14 31 -8 20 9 -11 19 -63 13 -75 -8z"/>
<path d="M2583 995 c0 -38 2 -55 4 -37 4 29 7 32 39 32 31 0 34 -2 34 -30 0
-16 5 -30 10 -30 6 0 10 28 10 65 0 37 -4 65 -10 65 -5 0 -10 -14 -10 -31 0
-28 -2 -30 -32 -27 -27 2 -34 8 -39 33 -4 19 -6 4 -6 -40z"/>
<path d="M2766 1038 c-9 -12 -16 -33 -16 -45 0 -53 78 -84 113 -45 22 25 21
75 -1 95 -27 25 -78 22 -96 -5z m89 -12 c32 -49 -24 -109 -66 -70 -23 21 -25
57 -3 78 22 23 51 20 69 -8z"/>
<path d="M2959 1031 c-2 -44 -2 -58 1 -83 2 -19 3 -18 9 7 5 23 13 31 36 35
25 4 30 10 30 35 0 27 -3 30 -37 33 -36 3 -38 2 -39 -27z m58 8 c17 -17 4 -39
-23 -39 -19 0 -24 5 -24 25 0 27 26 35 47 14z"/>
</g>
</svg>
